<svg xmlns="http://www.w3.org/2000/svg" width="171.447" height="211.241" viewBox="0 0 171.447 211.241">
  <g id="Group_715" data-name="Group 715" transform="translate(-128.277 -65.012)">
    <g id="Group_447" data-name="Group 447" transform="translate(159.604 65.012)">
      <path id="Path_207" data-name="Path 207" d="M313.547,0l-54.4,110.252,40.22-42.011,14.176,22.986V53.435l54.4,56.818Z" transform="translate(-259.151 0)" fill="#f77e0b"/>
    </g>
    <g id="Group_448" data-name="Group 448" transform="translate(128.277 188.969)">
      <g id="Group_445" data-name="Group 445" transform="translate(0 0)">
        <path id="Path_204" data-name="Path 204" d="M165.614,32.174V49.082H154.559V0h17.319Q190.43,0,190.43,15.642A15.009,15.009,0,0,1,185.107,27.6q-5.322,4.569-14.222,4.569Zm0-23.685v15.3h4.347q8.831,0,8.831-7.736,0-7.563-8.831-7.564Z" transform="translate(-154.559)" fill="#f9f9f9"/>
        <path id="Path_205" data-name="Path 205" d="M242.09,49.082H212.654V0H240.96V9H223.709V19.921h16.052v8.967H223.709V40.115H242.09Z" transform="translate(-169.595)" fill="#f9f9f9"/>
        <path id="Path_206" data-name="Path 206" d="M371.628,49.082H357.663L343.356,27.759a20.316,20.316,0,0,1-1.3-2.7h-.171V49.082H330.829V0h11.055V23.206h.171q.41-.958,1.369-2.738L356.979,0h13.178L353.043,23.412Z" transform="translate(-200.181)" fill="#f9f9f9"/>
      </g>
      <path id="Path_207-2" data-name="Path 207" d="M283.367,0,259.151,49.082l17.905-18.7,6.311,10.233V23.788l24.216,25.294Z" transform="translate(-181.629 0)" fill="#f9f9f9"/>
      <g id="Group_446" data-name="Group 446" transform="translate(0 59.651)">
        <path id="Path_208" data-name="Path 208" d="M154.559,107.805V81.085H156.4v26.72Z" transform="translate(-154.559 -80.637)" fill="#f9f9f9"/>
        <path id="Path_209" data-name="Path 209" d="M185.194,107.805l-15.913-21.6a12.9,12.9,0,0,1-.857-1.3l-.242-.372h-.075q.038.484.038,1.174v22.1H166.3V81.085h1.416l15.8,21.41q.522.708,1.137,1.714h.093q-.093-1.3-.093-2.236V81.085H186.5v26.72Z" transform="translate(-157.598 -80.637)" fill="#f9f9f9"/>
        <path id="Path_210" data-name="Path 210" d="M210.351,107.805h-1.379l-9.764-26.72h2.069l7.733,21.522a14.914,14.914,0,0,1,.689,2.534h.075a19.161,19.161,0,0,1,.764-2.571l8.217-21.484h1.974Z" transform="translate(-166.115 -80.637)" fill="#f9f9f9"/>
        <path id="Path_211" data-name="Path 211" d="M233.9,107.805V81.085h12.484v1.7h-10.64V93.495h9.876v1.677h-9.876v10.956H247v1.677Z" transform="translate(-175.095 -80.637)" fill="#f9f9f9"/>
        <path id="Path_212" data-name="Path 212" d="M258.514,106.7v-2.106a10.733,10.733,0,0,0,5.814,1.826,7.482,7.482,0,0,0,4.752-1.3A4.375,4.375,0,0,0,270.7,101.5a4.727,4.727,0,0,0-1.09-3.27,21.5,21.5,0,0,0-4.724-3.326q-4.061-2.367-5.142-3.959a6.4,6.4,0,0,1-1.081-3.681,6.224,6.224,0,0,1,2.2-4.807,8.457,8.457,0,0,1,5.869-1.975,14.912,14.912,0,0,1,4.77.8V83.22a12.023,12.023,0,0,0-5.012-1.062,6.368,6.368,0,0,0-4.314,1.379,4.432,4.432,0,0,0-1.594,3.5,4.69,4.69,0,0,0,1.09,3.26,21.484,21.484,0,0,0,4.7,3.3,16.83,16.83,0,0,1,4.984,3.773,6.145,6.145,0,0,1,1.239,3.792,6.46,6.46,0,0,1-2.134,5.013,8.65,8.65,0,0,1-6.028,1.937,13.883,13.883,0,0,1-3.177-.428A10.28,10.28,0,0,1,258.514,106.7Z" transform="translate(-181.465 -80.481)" fill="#f9f9f9"/>
        <path id="Path_213" data-name="Path 213" d="M291.686,82.78v25.025H289.86V82.78h-7.714v-1.7H299.4v1.7Z" transform="translate(-187.581 -80.637)" fill="#f9f9f9"/>
        <path id="Path_214" data-name="Path 214" d="M311.561,107.805V81.085h1.844v26.72Z" transform="translate(-195.194 -80.637)" fill="#f9f9f9"/>
        <path id="Path_215" data-name="Path 215" d="M342.2,107.805l-15.912-21.6a12.916,12.916,0,0,1-.858-1.3l-.242-.372h-.074q.037.484.037,1.174v22.1H323.3V81.085h1.416l15.8,21.41q.521.708,1.136,1.714h.093q-.093-1.3-.093-2.236V81.085H343.5v26.72Z" transform="translate(-198.233 -80.637)" fill="#f9f9f9"/>
        <path id="Path_216" data-name="Path 216" d="M378.639,105.786a17.144,17.144,0,0,1-8.515,2.329,11.376,11.376,0,0,1-8.832-3.707,13.9,13.9,0,0,1-3.373-9.727,14.643,14.643,0,0,1,3.634-10.136,12.382,12.382,0,0,1,9.708-4.062A17.245,17.245,0,0,1,378.1,81.9V83.91a16.287,16.287,0,0,0-7.1-1.751,10.33,10.33,0,0,0-8.115,3.447A12.742,12.742,0,0,0,359.82,94.4q0,5.628,2.879,8.823a9.925,9.925,0,0,0,7.761,3.2,12.48,12.48,0,0,0,6.336-1.565V96.041h-6.3V94.363h8.143Z" transform="translate(-207.193 -80.481)" fill="#f9f9f9"/>
      </g>
    </g>
  </g>
</svg>
